<svg preserveAspectRatio="xMidYMid slice" width="100%" height="100%" overflow="visible" style="display: block;" viewBox="0 0 264.682 341.84" fill="none" xmlns="http://www.w3.org/2000/svg">
<g id="bggs.svg" clip-path="url(#clip0_24_20)">
<g id="Vector">
<path d="M208.28 7.91777C177.617 16.1092 84.9059 76.709 84.9059 76.709L122.023 96.425L121.82 76.308L180.95 134.373L201.088 128.625V257.955L11.2192 193.29L-43.4399 250.77L13.3907 307.332L13.173 285.778C13.173 285.778 156.953 367.597 208.28 382.974C259.606 398.35 310.406 366.621 310.406 319.746V78.3306C310.406 7.91774 238.942 -0.273635 208.28 7.91777Z" fill="var(--fill-0, #018CEE)"/>
<path d="M-69.3212 378.582C-38.7433 370.082 54.4059 308.683 54.4059 308.683L13.173 285.778L13.3907 307.332L-43.2699 251.857L-63.3484 257.808L-64.6542 128.485L125.858 191.233L179.934 133.205L121.82 76.308L122.023 96.425C122.023 96.425 -21.629 18.4032 -73.1081 3.54484C-124.587 -11.3135 -175.064 20.9264 -174.591 67.7987L-172.153 309.202C-171.442 379.611 -99.8991 387.082 -69.3212 378.582Z" fill="var(--fill-0, #018CEE)"/>
<path d="M122.023 96.425C122.023 96.425 -21.629 18.4032 -73.1081 3.54484C-124.587 -11.3135 -175.064 20.9264 -174.591 67.7987L-172.153 309.202C-171.442 379.611 -99.8991 387.082 -69.3212 378.582C-38.7433 370.082 54.4059 308.683 54.4059 308.683L13.173 285.778L13.3907 307.332L-43.2699 251.857L-63.3484 257.808L-64.6542 128.485L125.858 191.233L179.934 133.205L121.82 76.308L122.023 96.425L84.9059 76.709C84.9059 76.709 177.617 16.1092 208.28 7.91777C238.942 -0.273635 310.406 7.91774 310.406 78.3306V319.746C310.406 366.621 259.606 398.35 208.28 382.974C156.953 367.597 13.173 285.778 13.173 285.778M13.3907 307.332L-43.4399 250.77L11.2192 193.29L201.088 257.955V128.625L180.95 134.373L121.82 76.308" stroke="var(--stroke-0, white)"/>
</g>
</g>
<defs>
<clipPath id="clip0_24_20">
<rect width="264.682" height="341.84" fill="white"/>
</clipPath>
</defs>
</svg>
