<svg preserveAspectRatio="none" width="100%" height="100%" overflow="visible" style="display: block;" viewBox="0 0 44 44" fill="none" xmlns="http://www.w3.org/2000/svg">
<g id="SVG" clip-path="url(#clip0_21_68)">
<path id="Vector" d="M22 0.419048V0.419048C33.9188 0.419048 43.581 10.0812 43.581 22V22C43.581 33.9188 33.9188 43.581 22 43.581V43.581C10.0812 43.581 0.419048 33.9188 0.419048 22V22C0.419048 10.0812 10.0812 0.419048 22 0.419048V0.419048" stroke="var(--stroke-0, #E3E1E0)" stroke-width="0.838095"/>
<path id="Vector_2" d="M22 18.2351C21.2554 18.2351 20.5275 18.4559 19.9083 18.8696C19.2892 19.2833 18.8066 19.8713 18.5217 20.5592C18.2367 21.2472 18.1622 22.0042 18.3075 22.7345C18.4528 23.4648 18.8113 24.1357 19.3378 24.6622C19.8643 25.1887 20.5352 25.5472 21.2655 25.6925C21.9958 25.8378 22.7528 25.7633 23.4408 25.4783C24.1287 25.1934 24.7167 24.7108 25.1304 24.0917C25.5441 23.4725 25.7649 22.7446 25.7649 22C25.7636 21.0019 25.3665 20.045 24.6607 19.3393C23.955 18.6335 22.9981 18.2364 22 18.2351V18.2351M22 24.7827C21.4496 24.7827 20.9116 24.6196 20.454 24.3138C19.9963 24.008 19.6397 23.5734 19.429 23.0649C19.2185 22.5564 19.1634 21.997 19.2707 21.4571C19.3781 20.9173 19.6432 20.4214 20.0323 20.0323C20.4214 19.6432 20.9173 19.3781 21.4571 19.2707C21.997 19.1634 22.5564 19.2185 23.0649 19.429C23.5734 19.6397 24.008 19.9963 24.3138 20.454C24.6196 20.9116 24.7827 21.4496 24.7827 22C24.7827 22.738 24.4896 23.4458 23.9677 23.9677C23.4458 24.4896 22.738 24.7827 22 24.7827V24.7827M25.9286 13.6517H18.0714C16.8997 13.6531 15.7763 14.1192 14.9477 14.9477C14.1192 15.7763 13.6531 16.8997 13.6517 18.0714V25.9286C13.6531 27.1003 14.1192 28.2237 14.9477 29.0523C15.7763 29.8808 16.8997 30.3469 18.0714 30.3483H25.9286C27.1003 30.3469 28.2237 29.8808 29.0523 29.0523C29.8808 28.2237 30.3469 27.1003 30.3483 25.9286V18.0714C30.3469 16.8997 29.8808 15.7763 29.0523 14.9477C28.2237 14.1192 27.1003 13.6531 25.9286 13.6517V13.6517M29.366 25.9286C29.366 26.8402 29.0039 27.7146 28.3593 28.3593C27.7146 29.0039 26.8402 29.366 25.9286 29.366H18.0714C17.1598 29.366 16.2854 29.0039 15.6407 28.3593C14.9961 27.7146 14.634 26.8402 14.634 25.9286V18.0714C14.634 17.1598 14.9961 16.2854 15.6407 15.6407C16.2854 14.9961 17.1598 14.634 18.0714 14.634H25.9286C26.8402 14.634 27.7146 14.9961 28.3593 15.6407C29.0039 16.2854 29.366 17.1598 29.366 18.0714V25.9286V25.9286M27.0745 17.744C27.0745 17.9059 27.0264 18.0642 26.9365 18.1987C26.8465 18.3333 26.7187 18.4382 26.5692 18.5002C26.4196 18.5621 26.255 18.5784 26.0963 18.5467C25.9375 18.5152 25.7916 18.4373 25.6772 18.3228C25.5627 18.2084 25.4848 18.0625 25.4533 17.9037C25.4216 17.745 25.4379 17.5804 25.4998 17.4308C25.5617 17.2813 25.6667 17.1535 25.8013 17.0635C25.9358 16.9736 26.0941 16.9255 26.256 16.9255C26.473 16.9255 26.6812 17.0119 26.8347 17.1653C26.9881 17.3188 27.0745 17.527 27.0745 17.744V17.744" fill="var(--fill-0, #031CAD)"/>
</g>
<defs>
<clipPath id="clip0_21_68">
<rect width="44" height="44" fill="white"/>
</clipPath>
</defs>
</svg>
