<svg preserveAspectRatio="none" width="100%" height="100%" overflow="visible" style="display: block;" viewBox="0 0 44 44" fill="none" xmlns="http://www.w3.org/2000/svg">
<g id="SVG" clip-path="url(#clip0_21_64)">
<path id="Vector" d="M22 0.419048V0.419048C33.9188 0.419048 43.581 10.0812 43.581 22V22C43.581 33.9188 33.9188 43.581 22 43.581V43.581C10.0812 43.581 0.419048 33.9188 0.419048 22V22C0.419048 10.0812 10.0812 0.419048 22 0.419048V0.419048" stroke="var(--stroke-0, #E3E1E0)" stroke-width="0.838095"/>
<path id="Vector_2" d="M29.2024 13.4881H14.7976C14.4503 13.4881 14.1172 13.6261 13.8716 13.8716C13.6261 14.1172 13.4881 14.4503 13.4881 14.7976V29.2024C13.4881 29.5497 13.6261 29.8828 13.8716 30.1284C14.1172 30.3739 14.4503 30.5119 14.7976 30.5119H29.2024C29.5497 30.5119 29.8828 30.3739 30.1284 30.1284C30.3739 29.8828 30.5119 29.5497 30.5119 29.2024V14.7976C30.5119 14.4503 30.3739 14.1172 30.1284 13.8716C29.8828 13.6261 29.5497 13.4881 29.2024 13.4881V13.4881M29.2024 29.2024H14.7976V14.7976H29.2024V29.2024V29.2024M19.381 20.6905V25.9286C19.381 26.1023 19.312 26.2687 19.1891 26.3915C19.0664 26.5144 18.8999 26.5833 18.7262 26.5833C18.5525 26.5833 18.386 26.5144 18.2632 26.3915C18.1404 26.2687 18.0714 26.1023 18.0714 25.9286V20.6905C18.0714 20.5168 18.1404 20.3503 18.2632 20.2275C18.386 20.1046 18.5525 20.0357 18.7262 20.0357C18.8999 20.0357 19.0664 20.1046 19.1891 20.2275C19.312 20.3503 19.381 20.5168 19.381 20.6905V20.6905M26.5833 22.9821V25.9286C26.5833 26.1023 26.5144 26.2687 26.3915 26.3915C26.2687 26.5144 26.1023 26.5833 25.9286 26.5833C25.7549 26.5833 25.5884 26.5144 25.4656 26.3915C25.3427 26.2687 25.2738 26.1023 25.2738 25.9286V22.9821C25.2738 22.548 25.1014 22.1317 24.7944 21.8246C24.4874 21.5177 24.071 21.3452 23.6369 21.3452C23.2028 21.3452 22.7864 21.5177 22.4794 21.8246C22.1724 22.1317 22 22.548 22 22.9821V25.9286C22 26.1023 21.9311 26.2687 21.8082 26.3915C21.6854 26.5144 21.5189 26.5833 21.3452 26.5833C21.1715 26.5833 21.0051 26.5144 20.8823 26.3915C20.7594 26.2687 20.6905 26.1023 20.6905 25.9286V20.6905C20.6913 20.5301 20.7509 20.3756 20.8581 20.2562C20.9653 20.1369 21.1126 20.0611 21.2719 20.0432C21.4312 20.0252 21.5916 20.0663 21.7227 20.1588C21.8538 20.2513 21.9464 20.3887 21.9828 20.5448C22.4258 20.2443 22.9421 20.0702 23.4766 20.0411C24.011 20.0119 24.5433 20.129 25.0163 20.3795C25.4892 20.6301 25.885 21.0048 26.1611 21.4633C26.4372 21.9218 26.5831 22.4469 26.5833 22.9821V22.9821M19.7083 18.3988C19.7083 18.593 19.6507 18.783 19.5428 18.9444C19.4349 19.106 19.2815 19.2319 19.1021 19.3062C18.9226 19.3805 18.7251 19.4 18.5346 19.3621C18.344 19.3242 18.1691 19.2306 18.0317 19.0933C17.8944 18.9559 17.8008 18.781 17.7629 18.5904C17.725 18.3999 17.7445 18.2024 17.8188 18.0229C17.8931 17.8435 18.019 17.6901 18.1806 17.5822C18.342 17.4743 18.532 17.4167 18.7262 17.4167C18.9866 17.4167 19.2365 17.5202 19.4207 17.7043C19.6048 17.8885 19.7083 18.1384 19.7083 18.3988V18.3988" fill="var(--fill-0, #031CAD)"/>
</g>
<defs>
<clipPath id="clip0_21_64">
<rect width="44" height="44" fill="white"/>
</clipPath>
</defs>
</svg>
