<svg preserveAspectRatio="none" width="100%" height="100%" overflow="visible" style="display: block;" viewBox="0 0 82 18" fill="none" xmlns="http://www.w3.org/2000/svg">
<g id="Vector">
<path d="M9.69164 0H0L12.5796 18H19.3833L31.5468 0H19.697L14.3874 6.624H20.2154L17.4988 11.016L9.69164 0Z" fill="var(--fill-0, #001CBF)"/>
<path d="M32.8447 18C27.9956 18 25.7128 15.4592 25.7128 12.4412C25.7128 9.42311 27.9956 6.88235 32.8447 6.88235C37.6939 6.88235 39.9767 9.42311 39.9767 12.4412C39.9767 15.4592 37.6939 18 32.8447 18ZM32.8447 15.8778C36.1272 15.8778 37.4178 14.2329 37.4178 12.4412C37.4178 10.6494 36.1272 9.00455 32.8447 9.00455C29.5622 9.00455 28.2716 10.6494 28.2716 12.4412C28.2716 14.2329 29.5622 15.8778 32.8447 15.8778Z" fill="var(--fill-0, #001CBF)"/>
<path d="M43.6546 17.7063H41.1703V7.17608H48.1978C51.0998 7.17608 52.4054 8.87971 52.4054 10.7375C52.4054 12.3163 51.6071 13.293 50.1822 13.763L52.5098 17.7063H49.7421L47.601 14.0787H43.6546V17.7063ZM48.1978 9.29827H43.6546V12.1768H48.1978C49.4884 12.1768 49.8913 11.5012 49.8913 10.7375C49.8913 9.97385 49.4884 9.29827 48.1978 9.29827Z" fill="var(--fill-0, #001CBF)"/>
<path d="M53.7035 17.7063V7.17608H56.8666L62.8049 14.8277V7.17608H65.2892V17.7063H62.126L56.1877 10.0546V17.7063H53.7035Z" fill="var(--fill-0, #001CBF)"/>
<path d="M66.7887 17.7063V7.17608H69.2729V17.7063H66.7887Z" fill="var(--fill-0, #001CBF)"/>
<path d="M70.3248 7.17608H82V9.29827H77.4045V17.7063H74.9203V9.29827H70.3248V7.17608Z" fill="var(--fill-0, #001CBF)"/>
</g>
</svg>
