<svg preserveAspectRatio="none" width="100%" height="100%" overflow="visible" style="display: block;" viewBox="0 0 18 18" fill="none" xmlns="http://www.w3.org/2000/svg">
<g id="SVG">
<path id="Vector" d="M15.7845 9.59669L10.722 14.6592C10.5634 14.8177 10.3485 14.9067 10.1243 14.9067C9.90013 14.9067 9.68514 14.8177 9.52664 14.6592C9.36814 14.5007 9.27909 14.2857 9.27909 14.0615C9.27909 13.8374 9.36814 13.6224 9.52664 13.4639L13.1485 9.84348H2.8125C2.58872 9.84348 2.37411 9.75459 2.21588 9.59635C2.05764 9.43812 1.96875 9.22351 1.96875 8.99973C1.96875 8.77595 2.05764 8.56134 2.21588 8.40311C2.37411 8.24487 2.58872 8.15598 2.8125 8.15598H13.1485L9.52804 4.53348C9.36954 4.37498 9.28049 4.15999 9.28049 3.93583C9.28049 3.71166 9.36954 3.49668 9.52804 3.33816C9.68656 3.17966 9.90154 3.09061 10.1257 3.09061C10.3499 3.09061 10.5649 3.17966 10.7234 3.33816L15.7859 8.40066C15.8646 8.47916 15.9269 8.57242 15.9695 8.6751C16.012 8.77778 16.0338 8.88783 16.0336 8.99897C16.0335 9.1101 16.0115 9.22011 15.9687 9.32269C15.9259 9.42526 15.8633 9.51837 15.7845 9.59669V9.59669" fill="var(--fill-0, #031CAD)"/>
</g>
</svg>
