<svg preserveAspectRatio="none" width="100%" height="100%" overflow="visible" style="display: block;" viewBox="0 0 27 28" fill="none" xmlns="http://www.w3.org/2000/svg">
<path id="Vector" d="M24.75 0H2.25C1.65327 0 1.08096 0.236006 0.65901 0.656079C0.23706 1.07615 0 1.64592 0 2.23999V10.08C0 17.4608 3.58875 21.9337 6.59954 24.3865C9.84234 27.0269 13.0683 27.9229 13.2088 27.9608C13.4022 28.0131 13.6062 28.0131 13.7996 27.9608C13.9401 27.9229 17.1619 27.0269 20.4088 24.3865C23.4112 21.9337 27 17.4608 27 10.08V2.23999C27 1.64592 26.763 1.07615 26.341 0.656079C25.9191 0.236006 25.3467 0 24.75 0V0M24.75 10.08C24.75 15.2697 22.8291 19.4823 19.0405 22.5987C17.3914 23.9508 15.516 25.0028 13.5 25.7068C11.5104 25.0151 9.65805 23.9817 8.02688 22.6534C4.19345 19.5314 2.25 15.302 2.25 10.08V2.23999H24.75V10.08V10.08M7.07905 14.2323C6.86796 14.0222 6.74937 13.7371 6.74937 13.44C6.74937 13.1428 6.86796 12.8577 7.07905 12.6476C7.29016 12.4373 7.57647 12.3194 7.875 12.3194C8.17353 12.3194 8.45984 12.4373 8.67095 12.6476L11.25 15.2166L18.3291 8.16757C18.4337 8.06352 18.5577 7.98098 18.6942 7.92465C18.8309 7.86834 18.9773 7.83935 19.125 7.83935C19.2727 7.83935 19.4191 7.86834 19.5558 7.92465C19.6923 7.98098 19.8163 8.06352 19.9209 8.16757C20.0254 8.27164 20.1084 8.39517 20.165 8.53114C20.2215 8.66709 20.2506 8.81281 20.2506 8.95998C20.2506 9.10714 20.2215 9.25286 20.165 9.38886C20.1084 9.52475 20.0254 9.64825 19.9209 9.75234L12.0459 17.5923C11.9415 17.6965 11.8174 17.7791 11.6808 17.8354C11.5443 17.8919 11.3979 17.9208 11.25 17.9208C11.1021 17.9208 10.9557 17.8919 10.8192 17.8354C10.6826 17.7791 10.5585 17.6965 10.4541 17.5923L7.07905 14.2323V14.2323" fill="var(--fill-0, #031CAD)"/>
</svg>
