<svg preserveAspectRatio="none" width="100%" height="100%" overflow="visible" style="display: block;" viewBox="0 0 18 18" fill="none" xmlns="http://www.w3.org/2000/svg">
<g id="SVG">
<path id="Vector" d="M14.6597 10.722L9.59724 15.7845C9.51885 15.8631 9.4257 15.9255 9.32315 15.9681C9.22059 16.0107 9.11064 16.0326 8.99958 16.0326C8.88853 16.0326 8.77857 16.0107 8.67601 15.9681C8.57345 15.9255 8.48031 15.8631 8.40192 15.7845L3.33942 10.722C3.18092 10.5634 3.09187 10.3485 3.09187 10.1243C3.09187 9.90013 3.18092 9.68514 3.33942 9.52664C3.49793 9.36813 3.71291 9.27908 3.93708 9.27908C4.16124 9.27908 4.37622 9.36813 4.53474 9.52664L8.15653 13.1485V2.8125C8.15653 2.58872 8.24543 2.37411 8.40366 2.21588C8.56189 2.05764 8.7765 1.96875 9.00028 1.96875C9.22406 1.96875 9.43867 2.05764 9.59691 2.21588C9.75514 2.37411 9.84403 2.58872 9.84403 2.8125V13.1485L13.4658 9.52593C13.6243 9.36743 13.8393 9.27838 14.0635 9.27838C14.2876 9.27838 14.5026 9.36743 14.6611 9.52593C14.8197 9.68445 14.9088 9.89943 14.9088 10.1236C14.9088 10.3478 14.8197 10.5627 14.6611 10.7212L14.6597 10.722V10.722" fill="var(--fill-0, #2C0901)"/>
</g>
</svg>
