<svg preserveAspectRatio="none" width="100%" height="100%" overflow="visible" style="display: block;" viewBox="0 0 23 22" fill="none" xmlns="http://www.w3.org/2000/svg">
<path id="Vector" d="M15.5 14.5C15.5 13.395 12.366 12.5 8.5 12.5M15.5 14.5C15.5 15.605 12.366 16.5 8.5 16.5C4.634 16.5 1.5 15.605 1.5 14.5M15.5 14.5V19.437C15.5 20.576 12.366 21.5 8.5 21.5C4.634 21.5 1.5 20.577 1.5 19.437V14.5M15.5 14.5C19.324 14.5 22.5 13.513 22.5 12.5V2.5M8.5 12.5C4.634 12.5 1.5 13.395 1.5 14.5M8.5 12.5C4.082 12.5 0.5 11.513 0.5 10.5V5.5M8.5 3.5C4.082 3.5 0.5 4.395 0.5 5.5M0.5 5.5C0.5 6.605 4.082 7.5 8.5 7.5C8.5 8.513 11.753 9.5 15.577 9.5C19.401 9.5 22.5 8.513 22.5 7.5M22.5 2.5C22.5 1.395 19.4 0.5 15.577 0.5C11.754 0.5 8.654 1.395 8.654 2.5M22.5 2.5C22.5 3.605 19.4 4.5 15.577 4.5C11.754 4.5 8.654 3.605 8.654 2.5M8.654 2.5V12.666" stroke="var(--stroke-0, #031CAD)"/>
</svg>
