<svg preserveAspectRatio="none" width="100%" height="100%" overflow="visible" style="display: block;" viewBox="0 0 16.3109 23.07" fill="none" xmlns="http://www.w3.org/2000/svg">
<path id="Vector" d="M14.6459 11.535C13.8069 10.8317 12.7403 10.4584 11.6459 10.485H4.61086C4.29011 10.4931 3.97102 10.4364 3.67269 10.3183C3.37436 10.2002 3.10294 10.0231 2.87466 9.79759C2.64638 9.57211 2.46595 9.30289 2.34416 9.00605C2.22237 8.7092 2.16173 8.39083 2.16587 8.07C2.15804 7.94512 2.15804 7.81988 2.16587 7.695C2.26045 7.12171 2.56106 6.60266 3.01125 6.23533C3.46145 5.86799 4.03025 5.67763 4.61086 5.7H11.5409C12.1062 5.6995 12.6533 5.89981 13.0846 6.2652C13.5159 6.63059 13.8034 7.13732 13.8959 7.695H16.1459C16.0517 6.5384 15.5257 5.4596 14.6725 4.67309C13.8192 3.88657 12.7013 3.44994 11.5409 3.45H9.17086V0H7.29586V3.45H4.61086C3.45044 3.44994 2.33248 3.88657 1.47927 4.67309C0.626047 5.4596 0.100056 6.5384 0.00586511 7.695C-0.00195504 7.81988 -0.00195504 7.94512 0.00586511 8.07C0.00586511 8.67474 0.124977 9.27355 0.3564 9.83226C0.587823 10.391 0.927025 10.8986 1.35464 11.3262C2.21824 12.1898 3.38954 12.675 4.61086 12.675H11.7209C12.0391 12.667 12.3557 12.7228 12.652 12.839C12.9483 12.9553 13.2184 13.1297 13.4462 13.352C13.6741 13.5742 13.8552 13.8399 13.9788 14.1332C14.1023 14.4266 14.166 14.7417 14.1659 15.06C14.1803 15.2297 14.1803 15.4003 14.1659 15.57C14.0468 16.0978 13.7518 16.5694 13.3293 16.9074C12.9068 17.2454 12.3819 17.4297 11.8409 17.43H4.79086C4.24981 17.4297 3.72496 17.2454 3.30247 16.9074C2.87998 16.5694 2.58496 16.0978 2.46586 15.57H0.200865C0.329772 16.697 0.868818 17.7372 1.71529 18.4924C2.56176 19.2476 3.65649 19.665 4.79086 19.665H7.29586V23.07H9.17086V19.665H11.7209C12.8552 19.665 13.95 19.2476 14.7964 18.4924C15.6429 17.7372 16.182 16.697 16.3109 15.57V15.06C16.3091 14.3863 16.1589 13.7212 15.8712 13.1119C15.5834 12.5027 15.1651 11.9643 14.6459 11.535Z" fill="var(--fill-0, #031CAD)"/>
</svg>
