<svg preserveAspectRatio="none" width="100%" height="100%" overflow="visible" style="display: block;" viewBox="0 0 23.0469 17.5781" fill="none" xmlns="http://www.w3.org/2000/svg">
<path id="Vector" d="M22.4609 7.03125H21.2793L18.5146 0.811524C18.4072 0.56998 18.232 0.364767 18.0104 0.220735C17.7887 0.0767026 17.53 2.93792e-05 17.2656 0H5.78125C5.51689 2.93792e-05 5.2582 0.0767026 5.03652 0.220735C4.81484 0.364767 4.63967 0.56998 4.53223 0.811524L1.76758 7.03125H0.585938C0.430537 7.03125 0.281502 7.09298 0.171617 7.20287C0.0617325 7.31275 0 7.46179 0 7.61719C0 7.77259 0.0617325 7.92162 0.171617 8.03151C0.281502 8.14139 0.430537 8.20312 0.585938 8.20312H1.5625V16.2109C1.5625 16.5735 1.70654 16.9213 1.96294 17.1777C2.21934 17.4341 2.56709 17.5781 2.92969 17.5781H5.27344C5.63604 17.5781 5.98379 17.4341 6.24019 17.1777C6.49658 16.9213 6.64062 16.5735 6.64062 16.2109V14.4531H16.4062V16.2109C16.4062 16.5735 16.5503 16.9213 16.8067 17.1777C17.0631 17.4341 17.4108 17.5781 17.7734 17.5781H20.1172C20.4798 17.5781 20.8275 17.4341 21.0839 17.1777C21.3403 16.9213 21.4844 16.5735 21.4844 16.2109V8.20312H22.4609C22.6163 8.20312 22.7654 8.14139 22.8753 8.03151C22.9851 7.92162 23.0469 7.77259 23.0469 7.61719C23.0469 7.46179 22.9851 7.31275 22.8753 7.20287C22.7654 7.09298 22.6163 7.03125 22.4609 7.03125ZM5.60254 1.28809C5.61787 1.25348 5.64292 1.22408 5.67464 1.20345C5.70637 1.18282 5.74341 1.17185 5.78125 1.17188H17.2656C17.3035 1.17185 17.3405 1.18282 17.3722 1.20345C17.404 1.22408 17.429 1.25348 17.4443 1.28809L19.9971 7.03125H3.0498L5.60254 1.28809ZM5.46875 16.2109C5.46875 16.2627 5.44817 16.3124 5.41154 16.349C5.37492 16.3857 5.32524 16.4062 5.27344 16.4062H2.92969C2.87789 16.4062 2.82821 16.3857 2.79158 16.349C2.75495 16.3124 2.73438 16.2627 2.73438 16.2109V14.4531H5.46875V16.2109ZM20.1172 16.4062H17.7734C17.7216 16.4062 17.672 16.3857 17.6353 16.349C17.5987 16.3124 17.5781 16.2627 17.5781 16.2109V14.4531H20.3125V16.2109C20.3125 16.2627 20.2919 16.3124 20.2553 16.349C20.2187 16.3857 20.169 16.4062 20.1172 16.4062ZM20.3125 13.2812H2.73438V8.20312H20.3125V13.2812ZM4.6875 10.7422C4.6875 10.5868 4.74923 10.4378 4.85912 10.3279C4.969 10.218 5.11804 10.1562 5.27344 10.1562H6.83594C6.99134 10.1562 7.14037 10.218 7.25026 10.3279C7.36014 10.4378 7.42188 10.5868 7.42188 10.7422C7.42188 10.8976 7.36014 11.0466 7.25026 11.1565C7.14037 11.2664 6.99134 11.3281 6.83594 11.3281H5.27344C5.11804 11.3281 4.969 11.2664 4.85912 11.1565C4.74923 11.0466 4.6875 10.8976 4.6875 10.7422ZM15.625 10.7422C15.625 10.5868 15.6867 10.4378 15.7966 10.3279C15.9065 10.218 16.0555 10.1562 16.2109 10.1562H17.7734C17.9288 10.1562 18.0779 10.218 18.1878 10.3279C18.2976 10.4378 18.3594 10.5868 18.3594 10.7422C18.3594 10.8976 18.2976 11.0466 18.1878 11.1565C18.0779 11.2664 17.9288 11.3281 17.7734 11.3281H16.2109C16.0555 11.3281 15.9065 11.2664 15.7966 11.1565C15.6867 11.0466 15.625 10.8976 15.625 10.7422Z" fill="var(--fill-0, #031CAD)"/>
</svg>
