<svg preserveAspectRatio="none" width="100%" height="100%" overflow="visible" style="display: block;" viewBox="0 0 1367 1093" fill="none" xmlns="http://www.w3.org/2000/svg">
<g id="Vector">
<path d="M1079.15 22.6724C992.728 45.8073 726.435 221.539 726.435 221.539L844.007 282.416V221.539L1002.12 379.82L1058.88 363.586V728.85L523.725 546.218L369.665 708.558L531.834 870.897V814.078C531.834 814.078 934.485 1038.51 1079.15 1081.94C1223.82 1125.37 1367 1035.75 1367 903.365V221.539C1367 22.6723 1165.57 -0.462539 1079.15 22.6724Z" fill="white"/>
<path d="M296.718 1069.53C382.903 1045.53 647.412 867.117 647.412 867.117L529.232 807.43L529.846 868.304L370.145 711.628L313.552 728.434L309.872 363.188L846.84 540.407L999.256 376.52L835.46 215.826L836.033 272.642C836.033 272.642 431.141 52.2863 286.044 10.3219C140.947 -31.6424 -1.3247 59.4125 0.00930826 191.793L6.87976 873.585C8.88365 1072.44 210.532 1093.54 296.718 1069.53Z" fill="var(--fill-0, #0088E7)"/>
</g>
</svg>
