<svg preserveAspectRatio="none" width="100%" height="100%" overflow="visible" style="display: block;" viewBox="0 0 264.682 341.84" fill="none" xmlns="http://www.w3.org/2000/svg">
<g id="bggs.svg" clip-path="url(#clip0_30_21)">
<g id="Vector">
<path d="M208.77 7.91777C178.108 16.1092 85.3959 76.709 85.3959 76.709L122.513 96.425L122.31 76.308L181.44 134.373L201.578 128.625V257.955L11.7092 193.29L-42.9499 250.77L13.8807 307.332L13.6631 285.778C13.6631 285.778 157.443 367.597 208.77 382.974C260.096 398.35 310.896 366.621 310.896 319.746V78.3306C310.896 7.91774 239.432 -0.273635 208.77 7.91777Z" fill="var(--fill-0, #018CEE)"/>
<path d="M-68.8312 378.582C-38.2533 370.082 54.8959 308.683 54.8959 308.683L13.6631 285.778L13.8807 307.332L-42.7798 251.857L-62.8583 257.808L-64.1642 128.485L126.348 191.233L180.424 133.205L122.31 76.308L122.513 96.425C122.513 96.425 -21.139 18.4032 -72.6181 3.54484C-124.097 -11.3135 -174.574 20.9264 -174.101 67.7987L-171.663 309.202C-170.952 379.611 -99.4091 387.082 -68.8312 378.582Z" fill="var(--fill-0, #018CEE)"/>
<path d="M122.513 96.425C122.513 96.425 -21.139 18.4032 -72.6181 3.54484C-124.097 -11.3135 -174.574 20.9264 -174.101 67.7987L-171.663 309.202C-170.952 379.611 -99.4091 387.082 -68.8312 378.582C-38.2533 370.082 54.8959 308.683 54.8959 308.683L13.6631 285.778L13.8807 307.332L-42.7798 251.857L-62.8583 257.808L-64.1642 128.485L126.348 191.233L180.424 133.205L122.31 76.308L122.513 96.425L85.3959 76.709C85.3959 76.709 178.108 16.1092 208.77 7.91777C239.432 -0.273635 310.896 7.91774 310.896 78.3306V319.746C310.896 366.621 260.096 398.35 208.77 382.974C157.443 367.597 13.6631 285.778 13.6631 285.778M13.8807 307.332L-42.9499 250.77L11.7092 193.29L201.578 257.955V128.625L181.44 134.373L122.31 76.308" stroke="var(--stroke-0, white)"/>
</g>
</g>
<defs>
<clipPath id="clip0_30_21">
<rect width="264.682" height="341.84" fill="white"/>
</clipPath>
</defs>
</svg>
