<svg preserveAspectRatio="none" width="100%" height="100%" overflow="visible" style="display: block;" viewBox="0 0 3789.87 3457.26" fill="none" xmlns="http://www.w3.org/2000/svg">
<g id="Frame 9">
<path id="Vector" d="M1344.72 2147.1C1344.72 2147.1 1986.25 2965.91 2249.26 3182.68C2512.26 3399.46 2888.46 3338.16 3004.16 3062.75L3600.04 1644.28C3773.83 1230.56 3375.01 1006.4 3175 979C2974.99 951.6 2267.41 1084.46 2267.41 1084.46L2458.81 1313.86L2512.01 1187.22L2702.62 1654.68M2702.62 1654.68L2500.91 1179.15L2452.44 1297.85C2452.44 1297.85 1802.69 485.57 1537.51 271.461C1272.32 57.3516 896.767 122.443 783.848 399.013L202.292 1823.41C32.6707 2238.86 433.737 2458.98 634.017 2484.36C834.296 2509.74 1531.39 2380.5 1531.39 2380.5L1344.72 2147.1L1295.06 2265.31L1099.57 1803.95L967.144 1789.45L1278.69 1026.38L2240.91 1864.35L2702.62 1654.68ZM1295.06 2265.31L1099.57 1785.85L1561.95 1582.76L2515.66 2430.41L2834.89 1670.52L2702.62 1654.68" stroke="var(--stroke-0, #0088E7)" stroke-width="1.5"/>
</g>
</svg>
